Jump_normalized_Motion_pl11
version=1
nRows=25
nColumns=43
inDegrees=yes
endheader
time		pelvis_tilt		pelvis_list		pelvis_rotation		pelvis_tx		pelvis_ty		pelvis_tz		hip_flexion_r		hip_adduction_r		hip_rotation_r		knee_angle_r		ankle_angle_r		subtalar_angle_r		mtp_angle_r		hip_flexion_l		hip_adduction_l		hip_rotation_l		knee_angle_l		ankle_angle_l		subtalar_angle_l		mtp_angle_l		lumbar_extension		lumbar_bending		lumbar_rotation		neck_flexion		neck_lateral_bending		neck_rotation		arm_flex_r		arm_add_r		arm_rot_r		elbow_flex_r		pro_sup_r		wrist_flex_r		wrist_dev_r		hand_finger_flex_r		arm_flex_l		arm_add_l		arm_rot_l		elbow_flex_l		pro_sup_l		wrist_flex_l		wrist_dev_l		hand_finger_flex_l		
1.486667		-3.794122		-22.348200		86.096588		-0.024101		1.624139		1.658733		97.153915		-10.268411		12.647958		-137.065462		28.931284		12.182768		8.488752		89.675994		-7.004822		1.058040		-138.557239		33.332352		9.956809		0.887097		-46.978110		-5.426828		-1.098594		40.309545		5.132811		-1.729989		98.323778		-19.097031		33.955518		63.549052		79.168031		-2.691467		5.490884		-24.666488		106.158418		-12.070345		32.618071		53.728686		87.856549		-9.036805		6.011545		-10.581615		
1.490051		-3.735795		-22.473117		86.107984		-0.024120		1.624954		1.656027		96.833644		-10.290388		12.626109		-137.026775		28.930841		12.287309		8.509193		89.293614		-7.052743		0.996707		-138.472484		33.414734		9.857212		1.054230		-46.641522		-5.443147		-1.067374		40.253122		5.168952		-1.719238		99.270561		-18.818638		34.211755		63.317004		78.905343		-2.618508		5.275940		-24.807049		107.302255		-11.855537		33.016980		53.329531		87.921321		-8.914096		5.843591		-10.699758		
1.493434		-3.667957		-22.505140		86.129242		-0.024165		1.626063		1.653126		96.371574		-10.326791		12.602697		-136.954238		28.929816		12.420431		8.557224		88.763213		-7.090710		0.935343		-138.338769		33.441393		9.770926		1.315139		-46.411900		-5.440874		-1.019803		40.131479		5.197053		-1.715314		100.260593		-18.639059		34.640020		63.139987		78.328878		-2.597221		4.910455		-25.050108		108.446115		-11.679869		33.464131		52.937953		87.969418		-8.753322		5.521902		-10.904187		
1.496818		-3.582431		-22.648321		86.168797		-0.024247		1.626907		1.650279		96.037976		-10.361995		12.572201		-136.899038		28.912434		12.554961		8.620675		88.404500		-7.133331		0.899137		-138.242176		33.464370		9.696287		1.502299		-46.044513		-5.406045		-0.952373		40.048573		5.171346		-1.721160		101.217195		-18.423392		34.998732		62.959383		77.850496		-2.637799		4.731817		-25.199929		109.537111		-11.449972		33.780056		52.563964		88.061205		-8.610764		5.381948		-11.058624		
1.500202		-3.504470		-22.846969		86.217567		-0.024346		1.627657		1.647418		95.757185		-10.393391		12.557815		-136.850184		28.896077		12.674337		8.685547		88.123016		-7.177899		0.852169		-138.156157		33.474476		9.636144		1.651024		-45.614631		-5.368393		-0.909128		40.063120		5.131083		-1.722784		102.101706		-18.118828		35.172815		62.748964		77.459116		-2.720212		4.590762		-25.313114		110.556300		-11.164505		33.935206		52.205655		88.127670		-8.538900		5.280472		-11.204127		
1.503586		-3.415453		-22.957851		86.271265		-0.024420		1.628698		1.644377		95.345948		-10.429155		12.530586		-136.746565		28.854823		12.887799		8.808826		87.697185		-7.208652		0.828447		-138.027014		33.425721		9.534794		1.858637		-45.272047		-5.327854		-0.855410		39.887364		5.123198		-1.722102		102.979677		-17.871223		35.427960		62.573655		76.878296		-2.770447		4.325252		-25.411121		111.619040		-10.949044		34.285224		51.829458		88.239658		-8.373303		5.055195		-11.402661		
1.506970		-3.350603		-23.206420		86.324677		-0.024518		1.629421		1.641397		95.108699		-10.450194		12.540316		-136.695505		28.802211		13.052241		8.879789		87.455239		-7.250529		0.776926		-137.928810		33.408530		9.464198		1.946610		-44.767820		-5.290994		-0.829629		39.864032		5.091587		-1.717920		103.739775		-17.476355		35.381249		62.340730		76.643378		-2.825636		4.194868		-25.449963		112.593096		-10.649661		34.417173		51.474640		88.316717		-8.325668		5.029442		-11.518531		
1.510354		-3.307320		-23.395228		86.361816		-0.024629		1.630405		1.638225		94.772762		-10.481514		12.533904		-136.567553		28.735321		13.319560		8.998067		87.110138		-7.272602		0.738258		-137.771603		33.357899		9.370202		2.061606		-44.316084		-5.286925		-0.844007		39.732144		5.123249		-1.706136		104.462715		-17.094367		35.352758		62.101301		76.308741		-2.822195		3.926160		-25.476973		113.599442		-10.404628		34.693473		51.107231		88.431337		-8.222987		4.913271		-11.681458		
1.513737		-3.257567		-23.485471		86.410395		-0.024675		1.631479		1.634964		94.338713		-10.538780		12.634583		-136.528361		28.698534		13.699100		9.248815		86.630500		-7.291146		0.636564		-137.651774		33.288174		9.262611		2.280254		-43.986020		-5.299804		-0.881891		39.551442		5.267701		-1.665075		105.219288		-16.730002		35.351940		61.794697		75.728184		-2.766462		3.387952		-25.537094		114.662118		-10.205046		35.108779		50.722105		88.553856		-8.050775		4.611935		-12.003091		
1.517121		-3.223382		-23.797582		86.442671		-0.024807		1.632326		1.631626		94.122610		-10.587792		12.660439		-136.426425		28.648339		13.780337		9.295148		86.381005		-7.321835		0.557887		-137.499957		33.266647		9.261822		2.317131		-43.409916		-5.286088		-0.860698		39.488608		5.263718		-1.668076		105.840706		-16.424037		35.218611		61.794381		75.648756		-2.810623		3.278316		-25.573472		115.402307		-9.957665		35.031553		50.689301		88.567496		-8.070941		4.589141		-12.082562		
1.520505		-3.158723		-23.908080		86.468764		-0.024742		1.633427		1.628268		93.685904		-10.622588		12.705164		-136.335582		28.552964		14.344658		9.597149		85.921624		-7.371894		0.548031		-137.356482		33.232169		9.199178		2.496895		-43.021490		-5.328599		-0.906013		39.223291		5.455996		-1.645037		106.637157		-16.066696		35.370280		61.373366		75.151809		-2.740410		2.755337		-25.693909		116.565932		-9.714287		35.623235		50.122417		88.747654		-7.867970		4.508198		-12.406895		
1.523889		-3.118768		-24.208172		86.499824		-0.024779		1.634318		1.624843		93.441212		-10.668214		12.724886		-136.233266		28.504367		14.502489		9.683719		85.646311		-7.421102		0.502956		-137.187431		33.234980		9.204127		2.542541		-42.444558		-5.321017		-0.896355		39.204455		5.481118		-1.648618		107.341716		-15.737874		35.361009		61.229587		75.034881		-2.777631		2.644685		-25.758195		117.356006		-9.427699		35.597789		49.928540		88.758974		-7.889962		4.497764		-12.514528		
1.527273		-3.040300		-24.411215		86.514686		-0.024764		1.635376		1.621371		93.084231		-10.709383		12.726815		-136.113076		28.416005		14.899513		9.901670		85.268853		-7.486064		0.516763		-137.018790		33.253180		9.205681		2.647403		-41.953118		-5.329194		-0.892370		39.071653		5.557531		-1.648413		108.180986		-15.433621		35.618229		60.893976		74.748276		-2.771954		2.416764		-25.890319		118.315921		-9.117381		35.830843		49.457097		88.777822		-7.821069		4.444725		-12.706698		
1.530657		-2.949964		-24.406201		86.572215		-0.024842		1.636898		1.617541		92.424008		-10.793237		12.758130		-135.965982		28.373783		15.480646		10.566158		84.614929		-7.517829		0.506158		-136.828540		33.228858		9.264710		2.944088		-41.715394		-5.300982		-0.854335		38.862182		5.615847		-1.622801		109.075376		-15.341384		36.116781		60.675944		73.891820		-2.772828		1.748301		-26.322668		119.240920		-8.901487		36.177074		49.093644		88.513395		-7.630813		3.873836		-13.148923		
1.534040		-2.892229		-24.707584		86.598774		-0.024867		1.637833		1.613897		92.165275		-10.834338		12.748915		-135.833011		28.234088		15.619712		10.722579		84.317986		-7.567612		0.496649		-136.650224		33.234883		9.249126		3.012529		-41.102674		-5.284503		-0.830907		38.731721		5.622958		-1.649723		109.793987		-15.049052		36.222886		60.515056		73.780017		-2.810264		1.756675		-26.438060		119.981345		-8.624525		36.172361		48.862464		88.442523		-7.601526		3.861145		-13.227207		
1.537424		-2.843581		-25.002431		86.645204		-0.024912		1.638916		1.610030		91.840675		-10.873215		12.751897		-135.680235		28.126107		15.737959		10.807162		83.971507		-7.605664		0.456204		-136.431053		33.201688		9.260380		3.044804		-40.500123		-5.258406		-0.793480		38.545532		5.632582		-1.656478		110.391279		-14.858416		36.227343		60.543120		73.720302		-2.827214		1.699952		-26.495757		120.604121		-8.431417		36.149078		48.854688		88.406901		-7.577429		3.786287		-13.257486		
1.540808		-2.675996		-24.975255		86.731527		-0.024981		1.640372		1.606011		91.168570		-10.927177		12.732435		-135.524555		27.885261		16.368533		11.356160		83.292617		-7.652422		0.548261		-136.267844		33.215421		9.283000		3.242204		-40.229588		-5.148044		-0.730509		38.213560		5.623202		-1.599294		111.279533		-14.630555		36.708632		60.193359		73.347183		-2.868243		1.360842		-26.784648		121.538769		-8.237343		36.558268		48.327739		88.175916		-7.335642		3.217284		-13.295333		
1.544192		-2.630708		-25.261856		86.782692		-0.025002		1.641469		1.601970		90.842676		-10.962137		12.718509		-135.377392		27.785528		16.461233		11.482987		82.903224		-7.683898		0.510085		-136.023873		33.194408		9.297558		3.286773		-39.618668		-5.121024		-0.761175		38.112029		5.628112		-1.615711		111.832465		-14.354582		36.676925		60.166365		73.266649		-2.918631		1.280385		-26.862021		122.126772		-8.054453		36.493464		48.282960		88.119376		-7.375138		3.111048		-13.328390		
1.547576		-2.500650		-25.363775		86.859379		-0.024965		1.642723		1.597863		90.321952		-10.969862		12.681936		-135.239680		27.403681		16.883349		11.745965		82.343332		-7.743220		0.577369		-135.826676		33.219728		9.320511		3.381544		-39.174775		-5.029232		-0.785448		37.694274		5.661005		-1.548241		112.524908		-13.972725		36.823021		59.850674		73.162847		-3.033031		1.171141		-27.029077		122.917954		-7.940383		36.782060		47.943436		88.096613		-7.320476		2.884101		-13.301075		
1.550960		-2.394795		-25.481826		86.949167		-0.025052		1.644187		1.593444		89.751548		-11.020875		12.641022		-135.031707		27.255885		17.154301		12.076295		81.727890		-7.764037		0.616090		-135.567646		33.179236		9.432333		3.494404		-38.741579		-4.935698		-0.831150		37.491657		5.659452		-1.424396		113.072804		-13.688051		36.838317		59.790478		73.046599		-3.099261		0.906002		-27.214030		123.529137		-7.898016		36.959679		47.916771		88.016828		-7.371048		2.495913		-13.263715		
1.554343		-2.248616		-25.499734		87.063860		-0.025117		1.645770		1.588903		89.059479		-11.076239		12.578364		-134.830720		27.046569		17.535639		12.578741		81.006172		-7.797333		0.702576		-135.310461		33.157579		9.582268		3.670074		-38.408067		-4.799767		-0.902852		37.257001		5.660956		-1.253428		113.675494		-13.329595		36.923652		59.586374		72.876173		-3.190487		0.559126		-27.494312		124.209172		-7.893838		37.265316		47.749931		87.892560		-7.449360		1.975477		-13.204148		
1.557727		-2.125799		-25.701256		87.126228		-0.025082		1.646930		1.584574		88.664730		-11.075802		12.503325		-134.650930		26.619065		17.732393		12.761101		80.521946		-7.872877		0.773491		-135.092600		33.140244		9.627078		3.747760		-37.837894		-4.727224		-0.938405		36.909078		5.718191		-1.263927		114.228776		-12.934508		36.875138		59.341559		72.841133		-3.287401		0.531467		-27.650253		124.822597		-7.641067		37.252071		47.439558		87.850235		-7.556497		1.946401		-13.202199		
1.561111		-1.920918		-25.756034		87.270025		-0.025086		1.648504		1.579790		87.979838		-11.122061		12.328665		-134.429191		26.302525		17.943402		13.184014		79.830012		-7.925762		0.936769		-134.807544		33.101761		9.816768		3.928807		-37.429742		-4.559410		-0.926516		36.625566		5.788010		-1.126658		114.703507		-12.687476		36.889066		59.245910		72.798550		-3.266733		0.187437		-27.926889		125.351717		-7.500736		37.322746		47.243081		87.847142		-7.600318		1.547267		-13.138650		
1.564495		-1.643843		-25.712816		87.445385		-0.025039		1.650139		1.575040		87.227542		-11.186644		12.066670		-134.219890		25.751740		18.186265		13.833584		79.070535		-8.021046		1.179373		-134.568068		33.082025		10.016792		4.217384		-37.115223		-4.340438		-0.922914		36.137333		5.860980		-1.025927		115.250783		-12.335589		36.949161		58.924575		72.729083		-3.217741		-0.214678		-28.355093		125.971225		-7.251447		37.380040		46.753611		87.843035		-7.692308		1.151533		-13.056419		
1.567879		-1.456803		-25.804560		87.568463		-0.025022		1.651568		1.570183		86.659666		-11.257357		11.882030		-134.014981		25.159388		18.319144		14.183902		78.419332		-8.088513		1.306275		-134.301330		33.009867		10.060701		4.389730		-36.610101		-4.203516		-0.912442		35.579974		5.947065		-0.987032		115.632094		-12.097331		36.938204		58.799595		72.722529		-3.134607		-0.488149		-28.599970		126.390334		-6.992075		37.263006		46.477612		87.931039		-7.727730		1.039131		-13.028017		
